<?xml version="1.0" standalone="no"?>
<!DOCTYPE svg PUBLIC "-//W3C//DTD SVG 20010904//EN"
 "http://www.w3.org/TR/2001/REC-SVG-20010904/DTD/svg10.dtd">
<svg version="1.0" xmlns="http://www.w3.org/2000/svg"
 width="75.000000pt" height="75.000000pt" viewBox="0 0 75.000000 75.000000"
 preserveAspectRatio="xMidYMid meet">
<metadata>
Created by potrace 1.14, written by Peter Selinger 2001-2017
</metadata>
<g transform="translate(0.000000,75.000000) scale(0.100000,-0.100000)"
fill="#000000" stroke="none">
<path d="M310 715 c-7 -8 -16 -12 -21 -9 -5 3 -9 -1 -9 -10 0 -8 -5 -16 -12
-18 -21 -7 -34 -98 -18 -128 10 -20 10 -21 -8 -11 -11 6 -23 7 -27 3 -5 -4 -5
-1 -1 6 7 12 1 13 -66 15 -36 1 -89 -14 -83 -23 3 -5 -4 -11 -15 -15 -22 -7
-26 -20 -10 -30 13 -8 33 -46 23 -44 -4 1 -11 0 -15 -1 -5 -1 -14 -3 -20 -4
-16 -1 -18 -56 -3 -74 5 -7 18 -21 29 -30 45 -41 44 -40 90 -44 12 -1 23 -8
23 -15 0 -7 -3 -11 -5 -8 -8 8 -42 -26 -42 -42 0 -7 -5 -13 -11 -13 -6 0 -9
-6 -6 -14 3 -7 0 -19 -6 -25 -9 -9 -8 -14 3 -21 13 -9 13 -10 0 -10 -9 0 -11
-3 -5 -8 6 -4 12 -16 13 -27 2 -11 9 -23 15 -27 11 -7 18 -6 54 9 8 3 11 -5 8
-27 -3 -25 0 -33 18 -39 12 -5 31 -5 42 -1 11 4 23 7 26 6 17 -4 79 52 85 76
3 15 10 30 15 33 5 4 6 -2 2 -11 -4 -12 -3 -15 5 -10 8 5 12 0 12 -12 0 -11 7
-23 16 -26 8 -3 13 -9 10 -14 -4 -7 10 -15 69 -37 47 -18 87 -3 81 30 -5 25
15 40 31 24 11 -11 45 -1 38 11 -3 5 -1 11 4 14 11 7 9 85 -2 104 -5 6 -5 12
-2 12 3 0 -5 11 -19 25 -14 14 -30 25 -36 25 -6 0 -9 4 -5 9 3 5 17 8 30 5 14
-2 25 0 25 6 0 5 3 9 8 9 4 -1 10 0 15 1 4 1 11 3 15 4 5 0 15 8 23 16 47 47
61 115 24 115 -24 0 -33 33 -11 41 11 4 13 11 5 28 -21 46 -124 65 -174 32
-22 -14 -30 -15 -39 -5 -8 9 -8 10 2 5 9 -5 12 5 12 38 0 30 -4 46 -12 46 -10
0 -10 2 0 8 17 11 -45 81 -77 87 -12 2 -20 1 -18 -3 3 -4 -4 -16 -14 -26 -11
-12 -19 -14 -19 -7 0 7 -5 9 -12 5 -7 -4 -10 -4 -6 1 8 8 -9 35 -22 35 -4 0
-13 -7 -20 -15z"/>
</g>
</svg>
